<svg width="19" height="16" viewBox="0 0 19 16" fill="none" xmlns="http://www.w3.org/2000/svg">
<path d="M17.2572 0.435092C16.3873 0.00210667 15.2275 0.326846 14.7635 1.19282L9.54416 10.9891L3.86087 6.06391C3.51291 5.73917 3.04897 5.5768 2.52704 5.63092C2.06309 5.63092 1.59915 5.84741 1.25119 6.17215C0.555282 6.87576 0.613275 7.95822 1.36718 8.6077L8.73226 14.9942C8.84825 15.1566 9.02223 15.2649 9.19621 15.3731C9.48617 15.4813 9.77613 15.5896 10.0661 15.5896C10.2401 15.5896 10.4141 15.5896 10.588 15.5355C11.052 15.4272 11.4579 15.1025 11.6899 14.6695L18.0111 2.76239C18.533 1.89642 18.1851 0.868078 17.2572 0.435092Z" fill="#660033"/>
</svg>
