<svg width="40" height="36" viewBox="0 0 40 36" fill="none" xmlns="http://www.w3.org/2000/svg">
<path d="M5.45233 34.5479C5.45233 34.5479 5.40533 35.441 6.29839 35.441C7.37947 35.441 16.3571 35.441 16.3571 35.441V27.1683C16.3571 27.1683 16.2161 25.8052 17.5322 25.8052H21.7156C23.2667 25.8052 23.1727 27.1683 23.1727 27.1683V35.394C23.1727 35.394 31.6803 35.394 33.0434 35.394C34.1715 35.394 34.1245 34.2659 34.1245 34.2659V19.0367L20.2114 6.6748L5.45233 19.0367V34.5479Z" fill="white"/>
<path d="M0 17.9083C0 17.9083 1.2691 20.2115 3.9953 17.9083L20.3055 4.08931L35.6287 17.8143C38.7779 20.1175 40 17.8143 40 17.8143L20.3055 0L0 17.9083Z" fill="white"/>
<path d="M35.2527 4.04199H31.3044L31.3514 8.83635L35.2527 12.1736V4.04199Z" fill="white"/>
</svg>
