<svg width="41" height="38" viewBox="0 0 41 38" fill="none" xmlns="http://www.w3.org/2000/svg">
<path d="M7.4206 15.8575L15.1373 14.751C15.9813 14.6314 16.7047 14.123 17.0966 13.3754L20.563 6.55723C20.6836 6.31799 20.9247 6.28809 21.0152 6.28809C21.1056 6.28809 21.3468 6.31799 21.4673 6.55723L24.8735 13.3754C25.2654 14.123 25.9888 14.6314 26.8328 14.751L34.5495 15.8575C34.8208 15.8874 34.9112 16.0967 34.9413 16.1865C34.9715 16.2762 35.0016 16.4556 34.8208 16.635L29.2443 21.9281C28.6113 22.5262 28.34 23.3635 28.4907 24.2008L29.817 31.6769C29.8471 31.9162 29.7266 32.0358 29.6361 32.0956C29.5457 32.1554 29.3648 32.275 29.0935 32.1255L22.1908 28.5968C21.4372 28.208 20.5329 28.208 19.7793 28.5968L12.8765 32.1255C12.6354 32.2451 12.4244 32.1255 12.3339 32.0956C12.2435 32.0358 12.1229 31.8863 12.1531 31.6769L13.4794 24.2008C13.6301 23.3635 13.3588 22.5262 12.7258 21.9281L7.14931 16.635C6.96846 16.4556 6.9986 16.2762 7.02874 16.1865C7.05889 16.0967 7.14931 15.8874 7.4206 15.8575Z" fill="white"/>
<path d="M1.60287 16.425C0.397148 15.2587 1.0603 13.1953 2.74831 12.9561L13.0271 11.4609C13.6903 11.3712 14.263 10.9525 14.5644 10.3544L19.1462 1.14384C19.8998 -0.381281 22.0701 -0.381281 22.8237 1.14384L27.4356 10.3843C27.737 10.9824 28.3097 11.4011 28.9729 11.4908L39.2517 12.986C40.9096 13.2252 41.6029 15.2587 40.367 16.425L32.9216 23.6021C32.4394 24.0805 32.2284 24.7384 32.3188 25.3963L34.0972 35.5937C34.3987 37.2684 32.6202 38.5244 31.1131 37.7469L21.9194 32.9621C21.3165 32.6631 20.6232 32.6631 20.0204 32.9621L10.8267 37.7469C9.31953 38.5244 7.57122 37.2684 7.84251 35.5937L9.62096 25.4262C9.74154 24.7683 9.50039 24.0805 9.0181 23.632L1.60287 16.425ZM11.2788 23.4226C11.3994 23.5124 11.4296 23.6619 11.3994 23.8114L10.0731 31.2875C9.89225 32.2444 10.2841 33.2014 11.0678 33.7696C11.8817 34.3677 12.9367 34.4275 13.8109 33.9789L20.7137 30.4502C20.8644 30.3605 21.0452 30.3605 21.1959 30.4502L28.0987 33.9789C28.4906 34.1882 28.8825 34.2779 29.3045 34.2779C29.847 34.2779 30.3896 34.0985 30.8418 33.7696C31.6255 33.2014 32.0173 32.2444 31.8365 31.2875L30.5102 23.8114C30.48 23.6619 30.5403 23.5124 30.6308 23.4226L36.2977 18.1296C37.0211 17.4418 37.2623 16.4549 36.9608 15.5279C36.6594 14.6008 35.8455 13.913 34.8508 13.7635L27.1342 12.687C26.9834 12.657 26.8327 12.5673 26.7724 12.4178L23.306 5.5996C22.8538 4.73237 21.9797 4.19409 20.9849 4.19409C19.9902 4.19409 19.1161 4.73237 18.6639 5.5996L15.1975 12.4178C15.1372 12.5673 14.9864 12.657 14.8357 12.687L7.11908 13.7934C6.12435 13.9429 5.31049 14.6008 5.00905 15.5578C4.70762 16.4848 4.97891 17.4717 5.67221 18.1595L11.2788 23.4226Z" fill="white"/>
</svg>
