<svg width="45" height="46" viewBox="0 0 45 46" fill="none" xmlns="http://www.w3.org/2000/svg">
<path d="M42.6042 20.7411H41.0525C40.6169 17.379 39.2966 14.2892 37.3093 11.7302L38.4119 10.6276C39.3511 9.68844 39.3511 8.16394 38.4119 7.22474C37.4727 6.28554 35.9482 6.28554 35.009 7.22474L33.9064 8.32728C31.3611 6.3536 28.2712 5.01966 24.9092 4.58409V3.03236C24.9092 1.71204 23.8339 0.636719 22.4999 0.636719C21.166 0.636719 20.1043 1.71204 20.1043 3.03236V4.58409C16.7422 5.01966 13.6524 6.33999 11.0934 8.32728L9.9909 7.22474C9.0517 6.28554 7.5272 6.28554 6.588 7.22474C5.6488 8.16394 5.6488 9.68844 6.588 10.6276L7.69054 11.7302C5.71686 14.2892 4.38293 17.3654 3.94736 20.7411H2.39564C1.07531 20.7411 0 21.8164 0 23.1367C0 24.457 1.07531 25.5324 2.39564 25.5324H3.94736C4.38293 28.8944 5.70325 31.9843 7.69054 34.5433L6.588 35.6458C5.6488 36.585 5.6488 38.1095 6.588 39.0487C7.5272 39.9879 9.0517 39.9879 9.9909 39.0487L11.0934 37.9462C13.6524 39.9198 16.7422 41.2538 20.1043 41.6894V43.2411C20.1043 44.5614 21.1796 45.6367 22.4999 45.6367C23.8203 45.6367 24.9092 44.575 24.9092 43.2411V41.6894C28.2712 41.2538 31.3611 39.9335 33.92 37.9462L35.0226 39.0487C35.9618 39.9879 37.4863 39.9879 38.4255 39.0487C39.3647 38.1095 39.3647 36.585 38.4255 35.6458L37.3229 34.5433C39.2966 31.9843 40.6306 28.8944 41.0661 25.5324H42.6042C43.9246 25.5324 44.9999 24.457 44.9999 23.1367C45.0135 21.8164 43.9382 20.7411 42.6042 20.7411ZM22.4999 36.8708C14.9183 36.8708 8.77947 30.732 8.77947 23.1503C8.77947 15.5687 14.9183 9.42982 22.4999 9.42982C30.0816 9.42982 36.2204 15.5687 36.2204 23.1503C36.234 30.7184 30.0816 36.8708 22.4999 36.8708Z" fill="white"/>
<path d="M22.4999 29.48C26.0031 29.48 28.8429 26.6401 28.8429 23.137C28.8429 19.6338 26.0031 16.7939 22.4999 16.7939C18.9968 16.7939 16.1569 19.6338 16.1569 23.137C16.1569 26.6401 18.9968 29.48 22.4999 29.48Z" fill="white"/>
</svg>
