<svg width="85" height="100" viewBox="0 0 85 100" fill="none" xmlns="http://www.w3.org/2000/svg">
<path d="M43.8411 55.7847C43.1072 55.1024 41.9782 55.1024 41.3008 55.7847C40.6234 56.4671 40.6234 57.6044 41.3008 58.3437C41.9782 59.0261 43.1072 59.0261 43.8411 58.3437C44.575 57.6613 44.575 56.524 43.8411 55.7847Z" fill="#660033"/>
<path d="M42.5994 19.5615C22.1074 19.5615 5.4541 36.3368 5.4541 57.0357C5.4541 77.7347 22.1074 94.5099 42.6559 94.5099C63.2044 94.5099 79.8577 77.7347 79.8577 57.0357C79.8012 36.3368 63.1479 19.6184 42.5994 19.5615ZM40.8494 23.144C40.8494 22.1773 41.6398 21.3812 42.5994 21.3812C43.5591 21.3812 44.3494 22.1773 44.3494 23.144V30.3091C44.3494 31.2758 43.5591 32.0719 42.5994 32.0719C41.6398 32.0719 40.8494 31.2758 40.8494 30.3091V23.144ZM16.0671 58.7985H8.95412C7.99444 58.7985 7.20411 58.0024 7.20411 57.0357C7.20411 56.069 7.99444 55.2729 8.95412 55.2729H16.0671C17.0267 55.2729 17.8171 56.069 17.8171 57.0357C17.8171 58.0024 17.0267 58.7985 16.0671 58.7985ZM44.4059 90.9274C44.4059 91.8941 43.6156 92.6902 42.6559 92.6902C41.6962 92.6902 40.9059 91.8941 40.9059 90.9274V83.7624C40.9059 82.7957 41.6962 81.9995 42.6559 81.9995C43.6156 81.9995 44.4059 82.7957 44.4059 83.7624V90.9274ZM47.9624 57.0357C47.9624 59.7652 45.9301 62.0399 43.2769 62.381C40.5672 62.7222 38.0833 60.9025 37.4623 58.2867C36.8413 55.6141 38.3091 52.9414 40.8494 52.0316V39.18C40.8494 38.2133 41.6398 37.4172 42.5994 37.4172C43.5591 37.4172 44.3494 38.2133 44.3494 39.18V51.9747C44.5188 52.0316 44.6882 52.0884 44.8575 52.2022L64.3334 32.5837C65.0108 31.9013 66.1399 31.9013 66.8173 32.5837C67.4947 33.266 67.4947 34.4033 66.8173 35.0857L47.3978 54.7611C47.7366 55.4435 47.9624 56.2396 47.9624 57.0357ZM76.3012 58.7985H69.1883C68.2286 58.7985 67.4383 58.0024 67.4383 57.0357C67.4383 56.069 68.2286 55.2729 69.1883 55.2729H76.3012C77.2609 55.2729 78.0512 56.069 78.0512 57.0357C78.0512 58.0024 77.2609 58.7985 76.3012 58.7985Z" fill="#660033"/>
<path d="M46.0429 14.3869C45.0832 14.33 44.3493 13.4771 44.4058 12.4535C44.4058 12.4535 44.4058 12.4535 44.4058 12.3966V5.28847C44.4058 4.32176 45.1961 3.52565 46.1558 3.52565H47.9058C48.3574 3.52565 48.809 3.35505 49.1478 3.01386C49.4865 2.67267 49.7123 2.21774 49.7123 1.76282C49.7123 0.796113 48.922 0 47.9623 0H37.2929C36.8413 0 36.3896 0.170596 36.0509 0.511787C35.7122 0.852979 35.4864 1.3079 35.4864 1.76282C35.4864 2.72953 36.2767 3.52565 37.2364 3.52565H38.9864C39.9461 3.52565 40.7364 4.32176 40.7364 5.28847V12.4535C40.7929 13.4202 40.059 14.2732 39.0993 14.3869C31.8735 14.9556 24.8735 17.4008 18.8331 21.4951C18.7767 21.5519 18.6637 21.5519 18.6073 21.6088C18.5508 21.6657 18.4944 21.6657 18.4379 21.6657C18.2686 21.7225 18.0428 21.7794 17.817 21.7794C17.5912 21.7794 17.4218 21.7225 17.2524 21.6657C17.196 21.6657 17.196 21.6657 17.1395 21.6088C16.9702 21.5519 16.8008 21.4382 16.6315 21.2676C16.6315 21.2676 16.6315 21.2676 16.575 21.2676L12.454 17.1164C12.3976 17.0596 12.3411 16.9458 12.2847 16.889C12.1718 16.7752 12.1153 16.6615 12.0589 16.5478C12.0589 16.4909 12.0024 16.3772 12.0024 16.3203C11.946 16.2066 11.946 16.036 11.946 15.9223C11.946 15.7517 12.0024 15.6379 12.0024 15.5242C12.0024 15.4673 12.0024 15.3536 12.0589 15.2967C12.1153 15.183 12.1718 15.0693 12.2847 15.0124C12.3411 14.8987 12.3976 14.8418 12.454 14.7281C13.1315 14.0457 13.1315 12.9084 12.454 12.226C12.1153 11.8848 11.6637 11.7142 11.2121 11.7142C10.7605 11.7142 10.3089 11.8848 9.97016 12.226L4.94594 17.287C4.26852 17.9694 4.26852 19.1067 4.94594 19.7891C5.28465 20.1303 5.73627 20.3009 6.18788 20.3009C6.6395 20.3009 7.09111 20.1303 7.42983 19.7891C7.59918 19.6185 7.76854 19.5048 7.93789 19.4479C8.33306 19.2773 8.78467 19.2205 9.17983 19.391C9.46209 19.4479 9.6879 19.6185 9.91371 19.7891L13.4702 23.3716C13.5266 23.4285 13.5831 23.5422 13.6395 23.6559C13.696 23.7697 13.7524 23.8834 13.8089 23.9403C13.8653 24.054 13.8653 24.1677 13.8653 24.2815C13.9218 24.3952 13.9218 24.5089 13.9218 24.6227C13.9218 24.7364 13.8653 24.8501 13.8653 24.9638C13.8653 25.0776 13.8089 25.1913 13.8089 25.305C13.7524 25.4188 13.696 25.4756 13.6395 25.5894C13.5831 25.7031 13.5266 25.76 13.4702 25.8737C-1.20731 39.6919 -4.25571 61.9831 6.13143 79.327C16.5186 96.6709 37.5187 104.291 56.4865 97.5807C75.4543 90.9275 87.1963 71.7639 84.656 51.6905C82.2286 31.5033 66.0269 15.9791 46.0429 14.3869ZM42.5993 98.0925C20.075 98.0925 1.84109 79.7251 1.84109 57.0358C1.84109 34.3466 20.075 15.9791 42.5993 15.9791C65.1236 15.9791 83.3576 34.3466 83.3576 57.0358C83.3576 79.6682 65.1236 98.0357 42.5993 98.0925Z" fill="#660033"/>
</svg>
