<svg width="19" height="30" viewBox="0 0 19 30" fill="none" xmlns="http://www.w3.org/2000/svg">
<path d="M16.6984 0.56806L5.69052 8.73008H0V21.3441H5.69052L16.4496 29.2897C16.4496 29.2897 18.4087 30.9283 18.4087 29.2279C18.4087 27.5275 18.4087 2.14481 18.4087 0.598977C18.4398 -0.730443 16.6984 0.56806 16.6984 0.56806ZM14.9571 19.8292C14.8327 19.9529 14.6772 20.0147 14.5217 20.0147C14.3662 20.0147 14.2108 19.9529 14.0864 19.8292L10.1372 15.8718L6.15696 19.8292C6.03257 19.9529 5.87709 20.0147 5.72162 20.0147C5.56614 20.0147 5.41066 19.9529 5.28628 19.8292C5.16189 19.7055 5.0997 19.5509 5.0997 19.3964C5.0997 19.2418 5.16189 19.0872 5.28628 18.9635L9.23544 15.0371L5.28628 11.0798C5.16189 10.9561 5.0997 10.8015 5.0997 10.6469C5.0997 10.4923 5.16189 10.3378 5.28628 10.2141C5.53504 9.96675 5.93929 9.96675 6.15696 10.2141L10.1061 14.1405L14.0553 10.2141C14.304 9.96675 14.7083 9.96675 14.926 10.2141C15.1747 10.4614 15.1747 10.8633 14.926 11.0798L11.0079 15.0062L14.9571 18.9326C15.2058 19.1799 15.2058 19.5819 14.9571 19.8292Z" fill="#660033"/>
</svg>
