<svg width="37" height="30" viewBox="0 0 37 30" fill="none" xmlns="http://www.w3.org/2000/svg">
<path d="M5.65777 8.73008H0V21.3441H5.65777L16.355 29.2897C16.355 29.2897 18.3027 30.9283 18.3027 29.2279C18.3027 27.5275 18.3027 2.14481 18.3027 0.598977C18.3027 -0.730443 16.5714 0.56806 16.5714 0.56806L5.65777 8.73008Z" fill="#660033"/>
<path d="M24.0491 8.05525C23.6 7.60911 22.8513 7.60911 22.4022 8.05525C21.953 8.50139 21.953 9.24495 22.4022 9.69109C23.8994 11.1782 24.648 13.1115 24.648 15.0695C24.648 17.0276 23.8994 18.9609 22.4022 20.448C21.953 20.8941 21.953 21.6377 22.4022 22.0838C22.6268 22.3069 22.9262 22.4308 23.2257 22.4308C23.5251 22.4308 23.8245 22.3317 24.0491 22.0838C25.9955 20.1506 26.9687 17.5977 26.9687 15.0695C26.9687 12.5166 25.9955 9.98851 24.0491 8.05525Z" fill="#660033"/>
<path d="M27.6351 4.37835C27.2067 3.93134 26.4926 3.93134 26.0641 4.37835C25.6357 4.82537 25.6357 5.5704 26.0641 6.01742C28.4682 8.52568 29.6584 11.779 29.6584 15.0571C29.6584 18.3352 28.4682 21.6134 26.0641 24.1216C25.6357 24.5686 25.6357 25.3137 26.0641 25.7607C26.2784 25.9842 26.564 26.1084 26.8496 26.1084C27.1353 26.1084 27.4209 25.9842 27.6351 25.7607C30.4677 22.8054 31.872 18.9064 31.872 15.0571C31.872 11.183 30.4677 7.33364 27.6351 4.37835Z" fill="#660033"/>
<path d="M30.3231 0.69944C29.8412 0.254239 29.0379 0.254239 28.556 0.69944C28.0741 1.14464 28.0741 1.88664 28.556 2.33184C32.3579 5.84399 34.2588 10.4444 34.2588 15.0448C34.2588 19.67 32.3579 24.2704 28.556 27.8072C28.0741 28.2524 28.0741 28.9944 28.556 29.4396C28.797 29.6622 29.1183 29.7859 29.4396 29.7859C29.7608 29.7859 30.0821 29.687 30.3231 29.4396C34.6069 25.4576 36.7755 20.2636 36.7755 15.0448C36.7755 9.8508 34.6069 4.65678 30.3231 0.69944Z" fill="#660033"/>
</svg>
